<?xml version="1.0" encoding="UTF-8"?>
<svg id="Layer_2" xmlns="http://www.w3.org/2000/svg" width="1002.38" height="211.73" viewBox="0 0 1002.38 211.73">
  <defs>
    <style>
      .cls-1 {
        fill: #005454;
      }

      .cls-2 {
        fill: #00c8a6;
      }

      .cls-3 {
        fill: #00726a;
      }

      .cls-4 {
        fill: #00a28f;
      }
    </style>
  </defs>
  <g id="Layer_2-2" data-name="Layer_2">
    <path d="M335.8,75.84c-4.54-8.32-10.88-14.82-19.05-19.5-8.16-4.69-17.38-7.03-27.66-7.03-10.88,0-20.71,2.49-29.47,7.48-8.77,4.99-15.69,11.79-20.75,20.41-5.07,8.61-7.6,18.36-7.6,29.25s2.57,20.85,7.71,29.47c5.14,8.62,12.21,15.42,21.2,20.41s19.24,7.48,30.72,7.48c8.92,0,17.16-1.59,24.72-4.76,7.56-3.18,14.13-7.94,19.73-14.29l-17.69-17.68c-3.33,3.93-7.26,6.8-11.79,8.61-4.53,1.82-9.6,2.72-15.19,2.72-6.2,0-11.64-1.28-16.33-3.85-4.68-2.57-8.27-6.31-10.77-11.22-.99-1.96-1.78-4.04-2.38-6.27l80.04-.2c.6-2.41.98-4.64,1.13-6.68.15-2.04.23-4.05.23-6.01,0-10.58-2.27-20.03-6.8-28.34ZM261.22,94.85c.55-2.04,1.27-3.96,2.15-5.75,2.34-4.76,5.7-8.43,10.09-11,4.38-2.57,9.52-3.85,15.41-3.85s10.28,1.13,14.06,3.4c3.78,2.27,6.73,5.59,8.84,9.98,1.02,2.11,1.81,4.47,2.37,7.07l-52.92.15Z"/>
    <path d="M462.74,92.85v69.61h-29.92v-62.81c0-6.5-2.05-11.79-6.13-15.87-4.08-4.08-9.29-6.12-15.64-6.12-4.23,0-8.01.9-11.34,2.72-3.32,1.81-5.93,4.42-7.82,7.82-1.89,3.4-2.83,7.22-2.83,11.45v62.81h-29.71V52.93h29.71v10.29c2.71-2.78,5.85-5.15,9.4-7.11,6.58-3.63,14.02-5.45,22.34-5.45s15.38,2.01,21.65,6.01c6.27,4.01,11.23,9.22,14.85,15.65,3.63,6.42,5.44,13.26,5.44,20.52Z"/>
    <path d="M561.69,52.4v9.16c-2.76-2.7-6.01-4.96-9.75-6.78-6.35-3.09-13.53-4.65-21.54-4.65-9.83,0-18.67,2.38-26.53,7.15-7.86,4.76-14.02,11.22-18.48,19.38s-6.68,17.39-6.68,27.66,2.22,19.58,6.68,27.89c4.46,8.32,10.62,14.85,18.48,19.62,7.86,4.76,16.7,7.14,26.53,7.14,8.01,0,15.15-1.59,21.43-4.76,3.66-1.86,6.87-4.11,9.63-6.76v9.48c0,8.01-2.72,14.39-8.16,19.16-5.44,4.76-12.7,7.14-21.77,7.14-7.4,0-13.71-1.33-18.93-3.97-5.21-2.65-9.94-6.46-14.17-11.45l-19.04,18.82c5.44,7.56,12.58,13.41,21.42,17.57,8.85,4.16,19.16,6.24,30.95,6.24s21.92-2.23,30.84-6.69c8.91-4.46,15.9-10.77,20.97-18.93,5.06-8.17,7.6-17.62,7.6-28.35V52.4h-29.48ZM559.76,118.72c-2.19,4.16-5.29,7.37-9.29,9.64-4.01,2.27-8.81,3.4-14.4,3.4-5.14,0-9.79-1.17-13.94-3.52-4.16-2.34-7.37-5.59-9.64-9.74-2.27-4.16-3.4-8.88-3.4-14.18s1.17-9.78,3.51-13.94c2.34-4.16,5.52-7.4,9.53-9.75,4-2.34,8.72-3.51,14.17-3.51s9.97,1.17,14.05,3.51c4.08,2.35,7.22,5.59,9.41,9.75s3.29,8.88,3.29,14.17-1.1,10.02-3.29,14.17Z"/>
    <path d="M690.81,52.4v10.34c-3.02-3.14-6.58-5.75-10.66-7.84-6.2-3.18-13.15-4.77-20.86-4.77-10.12,0-19.16,2.5-27.09,7.49-7.94,4.98-14.17,11.79-18.71,20.4-4.53,8.62-6.8,18.37-6.8,29.25s2.27,20.41,6.8,29.02c4.54,8.62,10.77,15.42,18.71,20.41,7.93,4.99,16.89,7.48,26.87,7.48,7.85,0,14.92-1.58,21.2-4.76,4.05-2.05,7.57-4.62,10.54-7.71v10.21h29.93V52.4h-29.93ZM684.92,128.36c-5.15,5.59-11.87,8.39-20.18,8.39-5.3,0-10.06-1.28-14.29-3.86-4.23-2.57-7.52-6.04-9.86-10.43-2.35-4.38-3.52-9.52-3.52-15.41s1.17-10.81,3.52-15.2c2.34-4.38,5.59-7.85,9.75-10.43,4.15-2.56,8.95-3.85,14.4-3.85s10.43,1.25,14.51,3.74c4.08,2.49,7.33,6.01,9.75,10.54,2.41,4.54,3.62,9.68,3.62,15.42,0,8.47-2.57,15.5-7.7,21.09Z"/>
    <path d="M819.61,52.35v9.16c-2.76-2.7-6.01-4.96-9.75-6.78-6.35-3.09-13.53-4.65-21.54-4.65-9.83,0-18.67,2.38-26.53,7.15-7.86,4.76-14.02,11.22-18.48,19.38-4.46,8.16-6.69,17.39-6.69,27.66s2.23,19.58,6.69,27.89c4.46,8.32,10.62,14.85,18.48,19.62,7.86,4.76,16.7,7.14,26.53,7.14,8.01,0,15.15-1.59,21.42-4.76,3.67-1.86,6.88-4.11,9.64-6.77v9.49c0,8.01-2.72,14.39-8.16,19.16-5.44,4.76-12.7,7.14-21.77,7.14-7.41,0-13.72-1.33-18.93-3.97-5.22-2.65-9.94-6.46-14.17-11.45l-19.05,18.82c5.44,7.56,12.59,13.41,21.43,17.57,8.84,4.16,19.16,6.24,30.95,6.24s21.91-2.23,30.84-6.69c8.91-4.46,15.9-10.77,20.97-18.93,5.06-8.17,7.59-17.62,7.59-28.35V52.35h-29.47ZM817.68,118.67c-2.19,4.16-5.29,7.37-9.3,9.64-4,2.27-8.8,3.4-14.39,3.4-5.14,0-9.79-1.17-13.95-3.52-4.16-2.34-7.37-5.59-9.63-9.74-2.27-4.16-3.4-8.88-3.4-14.18s1.16-9.78,3.51-13.94c2.34-4.16,5.52-7.4,9.52-9.75,4.01-2.34,8.73-3.51,14.17-3.51s9.98,1.17,14.06,3.51c4.08,2.35,7.22,5.59,9.41,9.75,2.19,4.16,3.29,8.88,3.29,14.17s-1.1,10.02-3.29,14.17Z"/>
    <rect x="864.76" y="52.39" width="30.16" height="109.52"/>
    <path d="M997.05,113.83c2.64,4.23,3.97,9.67,3.97,16.32,0,10.74-3.86,19.24-11.56,25.51-7.71,6.27-18.14,9.41-31.29,9.41-6.35,0-12.51-.79-18.48-2.38-5.98-1.59-11.45-3.93-16.44-7.03-4.99-3.1-9.3-6.76-12.93-11l17.92-17.91c3.62,4.39,7.93,7.64,12.92,9.75,4.99,2.12,10.43,3.17,16.33,3.17,4.83,0,8.53-.71,11.11-2.15,2.56-1.43,3.85-3.44,3.85-6.01,0-3.02-1.36-5.33-4.08-6.91-2.72-1.59-6.16-2.99-10.32-4.2-4.16-1.21-8.58-2.49-13.26-3.85-4.69-1.36-9.11-3.21-13.27-5.56-4.16-2.34-7.59-5.63-10.31-9.86-2.72-4.23-4.08-9.67-4.08-16.33s1.73-13.03,5.21-18.25c3.48-5.21,8.39-9.22,14.74-12.01,6.35-2.8,13.83-4.2,22.45-4.2,9.07,0,17.26,1.55,24.6,4.65,7.33,3.1,13.41,7.82,18.25,14.17l-17.91,18.14c-3.33-3.93-7.07-6.84-11.23-8.73-4.16-1.89-8.58-2.83-13.26-2.83s-7.94.68-10.2,2.04c-2.27,1.36-3.4,3.25-3.4,5.66,0,2.73,1.28,4.8,3.85,6.24s5.97,2.76,10.2,3.97c4.23,1.21,8.65,2.53,13.27,3.97,4.61,1.43,8.99,3.44,13.15,6,4.15,2.58,7.55,5.98,10.2,10.21Z"/>
    <polygon class="cls-3" points="137.52 26.47 137.52 79.4 91.68 52.93 91.68 0 137.52 26.47"/>
    <polygon class="cls-4" points="137.52 79.4 137.52 132.34 91.68 158.8 91.68 105.87 137.52 79.4"/>
    <polygon class="cls-3" points="183.36 158.8 137.52 185.27 91.68 158.8 137.52 132.34 183.36 158.8"/>
    <polygon class="cls-1" points="137.52 185.27 91.68 211.73 45.84 185.27 91.68 158.8 137.52 185.27"/>
    <polygon class="cls-1" points="183.36 52.93 137.52 79.4 137.52 26.47 183.36 52.93"/>
    <polygon class="cls-3" points="183.36 52.93 183.36 105.87 137.52 132.33 137.52 79.4 183.36 52.93"/>
    <polygon class="cls-3" points="91.68 158.8 45.84 185.27 0 158.8 45.84 132.34 91.68 158.8"/>
    <polygon class="cls-4" points="45.84 79.4 45.84 132.34 0 158.8 0 105.86 45.84 79.4"/>
    <polygon class="cls-4" points="91.68 0 91.68 52.93 45.84 79.4 45.84 26.47 91.68 0"/>
    <polygon class="cls-2" points="45.84 26.47 45.84 79.4 0 105.86 0 52.93 45.84 26.47"/>
    <rect x="864.76" y="3.29" width="30.16" height="30.16"/>
  </g>
</svg>