<?xml version="1.0" encoding="UTF-8"?>
<svg id="Layer_2" xmlns="http://www.w3.org/2000/svg" width="21.6" height="21.6" viewBox="0 0 21.6 21.6">
  <defs>
    <style>
      .cls-1 {
        fill: none;
        stroke: #00726a;
        stroke-miterlimit: 10;
        stroke-width: .2px;
      }

      .cls-2 {
        fill: #00726a;
      }
    </style>
  </defs>
  <g id="Layer_9">
    <path class="cls-2" d="M14.15,4.71h-6.69c-1.51,0-2.74,1.22-2.74,2.74v6.68c0,1.51,1.23,2.74,2.74,2.74h6.69c1.51,0,2.73-1.23,2.73-2.74v-6.68c0-1.52-1.22-2.74-2.73-2.74ZM10.8,14.55c-2.07,0-3.76-1.68-3.76-3.76s1.69-3.76,3.76-3.76,3.76,1.68,3.76,3.76-1.68,3.76-3.76,3.76ZM14.86,7.54c-.51,0-.91-.41-.91-.91s.4-.92.91-.92.91.41.91.92-.41.91-.91.91ZM10.8,8.87c-1.06,0-1.92.86-1.92,1.92s.86,1.92,1.92,1.92,1.93-.86,1.93-1.92-.86-1.92-1.93-1.92Z"/>
    <path class="cls-2" d="M0,0v21.6h21.6V0H0ZM18.76,14.28c0,2.47-2,4.47-4.46,4.47h-6.99c-2.47,0-4.46-2-4.46-4.47v-6.98c0-2.47,1.99-4.47,4.46-4.47h6.99c2.46,0,4.46,2,4.46,4.47v6.98Z"/>
    <path class="cls-1" d="M14.15,4.71h-6.69c-1.51,0-2.74,1.22-2.74,2.74v6.68c0,1.51,1.23,2.74,2.74,2.74h6.69c1.51,0,2.73-1.23,2.73-2.74v-6.68c0-1.52-1.22-2.74-2.73-2.74ZM10.8,14.55c-2.07,0-3.76-1.68-3.76-3.76s1.69-3.76,3.76-3.76,3.76,1.68,3.76,3.76-1.68,3.76-3.76,3.76ZM14.86,7.54c-.51,0-.91-.41-.91-.91s.4-.92.91-.92.91.41.91.92-.41.91-.91.91ZM10.8,8.87c-1.06,0-1.92.86-1.92,1.92s.86,1.92,1.92,1.92,1.93-.86,1.93-1.92-.86-1.92-1.93-1.92Z"/>
    <path class="cls-1" d="M14.15,4.71h-6.69c-1.51,0-2.74,1.22-2.74,2.74v6.68c0,1.51,1.23,2.74,2.74,2.74h6.69c1.51,0,2.73-1.23,2.73-2.74v-6.68c0-1.52-1.22-2.74-2.73-2.74ZM10.8,14.55c-2.07,0-3.76-1.68-3.76-3.76s1.69-3.76,3.76-3.76,3.76,1.68,3.76,3.76-1.68,3.76-3.76,3.76ZM14.86,7.54c-.51,0-.91-.41-.91-.91s.4-.92.91-.92.91.41.91.92-.41.91-.91.91ZM10.8,8.87c-1.06,0-1.92.86-1.92,1.92s.86,1.92,1.92,1.92,1.93-.86,1.93-1.92-.86-1.92-1.93-1.92Z"/>
    <path class="cls-1" d="M12.73,10.79c0,1.06-.86,1.92-1.93,1.92s-1.92-.86-1.92-1.92.86-1.92,1.92-1.92,1.93.86,1.93,1.92Z"/>
    <path class="cls-1" d="M12.73,10.79c0,1.06-.86,1.92-1.93,1.92s-1.92-.86-1.92-1.92.86-1.92,1.92-1.92,1.93.86,1.93,1.92Z"/>
  </g>
</svg>