<?xml version="1.0" encoding="UTF-8"?>
<svg id="Layer_2" xmlns="http://www.w3.org/2000/svg" width="21.6" height="21.6" viewBox="0 0 21.6 21.6">
  <defs>
    <style>
      .cls-1 {
        fill: #00726a;
      }
    </style>
  </defs>
  <g id="Layer_9">
    <path class="cls-1" d="M20.4,0H0v21.6h21.6V0h-1.2ZM6.59,18.37h-3.13v-10.13h3.13v10.13ZM5.03,6.85c-1.01,0-1.81-.81-1.81-1.81s.8-1.81,1.81-1.81,1.8.81,1.8,1.81-.81,1.81-1.8,1.81ZM18.39,12.54v5.83h-3.14v-5.21c0-1.16-.29-1.69-.29-1.69-.34-.8-1.46-.7-1.46-.7-1.69,0-1.76,1.81-1.76,2.1v5.5h-3.19v-10.13h3.19v1.26c1.17-2.09,4.08-1.37,4.08-1.37,2.71.46,2.57,4.41,2.57,4.41Z"/>
  </g>
</svg>